<svg viewBox="0 0 256 256" xmlns="http://www.w3.org/2000/svg" role="img" aria-label="Linux penguin">
  <path fill="#000" fill-rule="evenodd" d="
    M128 24
    C 90 24 68 54 68 100
    C 68 116 60 124 46 132
    C 36 138 36 150 46 154
    C 54 157 64 152 70 144
    C 70 178 78 208 92 222
    C 84 228 74 234 70 242
    C 67 247 72 250 80 250
    L 108 250
    C 116 250 120 244 120 236
    C 120 231 123 229 128 229
    C 133 229 136 231 136 236
    C 136 244 140 250 148 250
    L 176 250
    C 184 250 189 247 186 242
    C 182 234 172 228 164 222
    C 178 208 186 178 186 144
    C 192 152 202 157 210 154
    C 220 150 220 138 210 132
    C 196 124 188 116 188 100
    C 188 54 166 24 128 24 Z
    M128 110
    a 34 52 0 1 0 0 104
    a 34 52 0 1 0 0 -104 Z
    M112 78
    a 8 8 0 1 0 0 16
    a 8 8 0 1 0 0 -16 Z
    M144 78
    a 8 8 0 1 0 0 16
    a 8 8 0 1 0 0 -16 Z
  "/>
</svg>
