<svg viewBox="0 0 256 312" xmlns="http://www.w3.org/2000/svg" role="img" aria-label="Tux, the Linux penguin">
  <!-- body + head + flippers (black) -->
  <path fill="#1b1b1b" d="
    M128 26
    C 92 26 70 56 70 104
    C 70 122 60 132 46 142
    C 36 148 36 162 48 166
    C 58 169 66 162 72 152
    C 72 210 86 268 128 268
    C 170 268 184 210 184 152
    C 190 162 198 169 208 166
    C 220 162 220 148 210 142
    C 196 132 186 122 186 104
    C 186 56 164 26 128 26 Z
  "/>

  <!-- white belly -->
  <ellipse cx="128" cy="184" rx="46" ry="60" fill="#ffffff"/>

  <!-- yellow feet -->
  <path fill="#f6b300" d="
    M120 250
    C 112 250 98 284 78 290
    C 67 293 68 302 81 302
    C 105 302 124 290 126 270
    C 126 258 124 250 120 250 Z
  "/>
  <path fill="#f6b300" d="
    M136 250
    C 144 250 158 284 178 290
    C 189 293 188 302 175 302
    C 151 302 132 290 130 270
    C 130 258 132 250 136 250 Z
  "/>

  <!-- yellow beak -->
  <path fill="#f6b300" d="
    M108 112
    C 108 103 148 103 148 112
    C 148 125 135 134 128 134
    C 121 134 108 125 108 112 Z
  "/>
  <path stroke="#c98a00" stroke-width="2.5" stroke-linecap="round" d="M111 117 H145"/>

  <!-- eyes: white sclera + black pupils (slightly cross-eyed) -->
  <ellipse cx="115" cy="92" rx="13" ry="18" fill="#ffffff"/>
  <ellipse cx="141" cy="92" rx="13" ry="18" fill="#ffffff"/>
  <circle cx="120" cy="96" r="5.5" fill="#1b1b1b"/>
  <circle cx="136" cy="96" r="5.5" fill="#1b1b1b"/>
</svg>
